<?xml version="1.0" standalone="no"?>
<!DOCTYPE svg PUBLIC "-//W3C//DTD SVG 20010904//EN"
 "http://www.w3.org/TR/2001/REC-SVG-20010904/DTD/svg10.dtd">
<svg version="1.0" xmlns="http://www.w3.org/2000/svg"
 width="512.000000pt" height="512.000000pt" viewBox="0 0 512.000000 512.000000"
 preserveAspectRatio="xMidYMid meet">

<g transform="translate(0.000000,512.000000) scale(0.100000,-0.100000)"
fill="#000000" stroke="none">
<path d="M0 2560 l0 -2560 2560 0 2560 0 0 2560 0 2560 -2560 0 -2560 0 0
-2560z m4480 960 l0 -960 -320 0 -320 0 0 -320 0 -320 320 0 320 0 0 -640 0
-640 -640 0 -640 0 0 320 0 320 -320 0 -320 0 0 -320 0 -320 -960 0 -960 0 0
320 0 320 320 0 320 0 0 320 0 320 -320 0 -320 0 0 1280 0 1280 1920 0 1920 0
0 -960z"/>
<path d="M3200 3520 l0 -320 320 0 320 0 0 320 0 320 -320 0 -320 0 0 -320z"/>
<path d="M1920 2880 l0 -320 -320 0 -320 0 0 -320 0 -320 320 0 320 0 0 320 0
320 320 0 320 0 0 -320 0 -320 320 0 320 0 0 -320 0 -320 320 0 320 0 0 320 0
320 -320 0 -320 0 0 320 0 320 -320 0 -320 0 0 320 0 320 -320 0 -320 0 0
-320z"/>
</g>
</svg>
